<svg width="170" height="170" viewBox="0 0 170 170" fill="none" xmlns="http://www.w3.org/2000/svg">
<g clip-path="url(#clip0_1_24)">
<path d="M-8.5 45.5L35 54M60.5 9L34 -3.5M60.5 9L68.5 27M60.5 9L106 -7L97 36M152 -7L156.5 27H182M97 36L160.5 64M97 36L108 92.5M97 36L68.5 27M160.5 64L174 57M160.5 64L170.5 95.5L156.5 111M68.5 27L35 54M35 54L34 95M34 95L17.5 111M34 95L73.5 124.5M17.5 111L-1.5 105M17.5 111L34 124.5M34 124.5L-1.5 156.5M34 124.5H73.5M73.5 124.5L91 144.5M73.5 124.5L108 92.5M108 92.5L156.5 111M156.5 111L164 124.5M164 124.5H170.5M164 124.5L125.5 171M91 144.5L68.5 171M91 144.5L112 171" stroke="white" stroke-opacity="0.25" stroke-width="5"/>
</g>
<defs>
<clipPath id="clip0_1_24">
<rect width="170" height="170" fill="white"/>
</clipPath>
</defs>
</svg>
