<svg width="170" height="170" viewBox="0 0 170 170" fill="none" xmlns="http://www.w3.org/2000/svg">
<path fill-rule="evenodd" clip-rule="evenodd" d="M130.912 134.989C126.012 134.989 111.833 134.533 101.414 134.175L100.81 146L69.2392 122.266L103.02 104.328L102.334 116.83L127.659 115.45L121.922 106.453L129.65 83.4782L147 114.249C147 114.249 146.382 134.989 130.912 134.989ZM86.9876 71.8735L98.1472 66.1608L83.0481 42.7858L76.1848 53.2866L54.8538 56.9295L72.1355 26.4344C72.1355 26.4344 91.1742 19.0107 97.9825 30.091C100.618 34.3824 108.113 48.3467 113.384 58.2818L123.885 52.9003L119.259 92.2955L86.9876 71.8735ZM66.1781 62.4214L64.8055 100.809L54.2498 93.91L42.1292 117.644L56.4735 117.52L71.2021 134.837H33.5776C33.5776 134.837 16.5567 123.798 23.7906 110.51C26.179 106.149 34.0306 93.565 39.7408 84.4717L29.9264 78.0691L66.1781 62.4214Z" fill="white"/>
</svg>
