<svg width="170" height="170" viewBox="0 0 170 170" fill="none" xmlns="http://www.w3.org/2000/svg">
<path fill-rule="evenodd" clip-rule="evenodd" d="M143.35 62.19L157.91 62.07L158 72.07L143.75 72.24L143.35 62.19ZM103.35 71.94L100.77 78.65L71.0997 79.21L39.4697 72.15L41.5797 62.7L51.6797 61.29L52.4697 53.4L79.3197 53L80.8897 57.2L90.0097 55.92L99.0697 63.92L136.07 63.35L135.94 71.51L103.35 71.94ZM118.21 93.94H124.97C141.97 93.94 133.15 117.75 116.13 117.63L105.47 117.57L109.11 110.79H110.16C117.35 110.84 125.16 100.79 117.41 100.79H106.41C107.03 107.79 99.7097 117.73 88.7097 117.66C83.4797 117.66 35.7097 117.34 30.8797 117.3C14.4897 117.18 5.02968 94.03 21.8797 93.95L24.4697 85.01L113.7 84.83L118.21 93.94ZM86.4697 100.79C83.9597 100.79 25.6597 100.79 23.6497 100.79C16.3897 100.74 23.9097 110.61 30.8697 110.66C32.8697 110.66 76.9997 110.79 79.2197 110.81C86.4697 110.85 94.2197 100.85 86.4697 100.79Z" fill="white"/>
</svg>
