<svg width="170" height="170" viewBox="0 0 170 170" fill="none" xmlns="http://www.w3.org/2000/svg">
<path fill-rule="evenodd" clip-rule="evenodd" d="M36.4273 65.817L24.0763 65.7149L24 74.2209L36.088 74.3655L36.4273 65.817ZM70.3584 74.1103L72.5469 79.8179L97.7153 80.2942L124.546 74.289L122.756 66.2508L114.189 65.0515L113.519 58.3402L90.7425 58L89.4107 61.5725L81.6744 60.4837L73.989 67.2885L42.6027 66.8037L42.713 73.7446L70.3584 74.1103ZM57.753 92.8235H52.0186C37.5979 92.8235 45.0797 113.076 59.5174 112.974L68.56 112.923L65.4723 107.156H64.5816C58.4825 107.199 51.8574 98.6501 58.4316 98.6501H67.7626C67.2367 104.604 73.4461 113.059 82.7772 113C87.2137 113 127.736 112.727 131.833 112.693C145.736 112.591 153.761 92.9 139.468 92.832L137.271 85.2277L61.5787 85.0745L57.753 92.8235ZM84.6773 98.6501C86.8065 98.6501 136.261 98.6501 137.966 98.6501C144.125 98.6076 137.746 107.003 131.842 107.046C130.145 107.046 92.7105 107.156 90.8273 107.173C84.6773 107.207 78.1032 98.7011 84.6773 98.6501Z" fill="white"/>
</svg>
