<svg width="170" height="170" viewBox="0 0 170 170" fill="none" xmlns="http://www.w3.org/2000/svg">
<path fill-rule="evenodd" clip-rule="evenodd" d="M134.573 65.817L146.924 65.7149L147 74.2209L134.912 74.3655L134.573 65.817ZM100.642 74.1103L98.4531 79.8179L73.2847 80.2942L46.4536 74.289L48.2435 66.2508L56.8111 65.0515L57.4813 58.3402L80.2575 58L81.5893 61.5725L89.3256 60.4837L97.011 67.2885L128.397 66.8037L128.287 73.7446L100.642 74.1103ZM113.247 92.8235H118.981C133.402 92.8235 125.92 113.076 111.483 112.974L102.44 112.923L105.528 107.156H106.418C112.518 107.199 119.143 98.6501 112.568 98.6501H103.237C103.763 104.604 97.5539 113.059 88.2228 113C83.7863 113 43.2641 112.727 39.1669 112.693C25.2637 112.591 17.239 92.9 31.5324 92.832L33.7295 85.2277L109.421 85.0745L113.247 92.8235ZM86.3227 98.6501C84.1935 98.6501 34.7389 98.6501 33.0339 98.6501C26.8754 98.6076 33.2544 107.003 39.1585 107.046C40.855 107.046 78.2895 107.156 80.1727 107.173C86.3227 107.207 92.8968 98.7011 86.3227 98.6501Z" fill="white"/>
</svg>
